<?xml version="1.0" encoding="UTF-8"?> <svg xmlns="http://www.w3.org/2000/svg" xmlns:xlink="http://www.w3.org/1999/xlink" width="259px" height="52px" viewBox="0 0 259 52"><!-- Generator: Sketch 53.2 (72643) - https://sketchapp.com --><title>JLCLogo</title><desc>Created with Sketch.</desc><g id="Page-1" stroke="none" stroke-width="1" fill="none" fill-rule="evenodd"><g id="Blog-Post-Page" transform="translate(-387.000000, -55.000000)"><g id="Group-22"><g id="Group-21"><g id="JLCLogo" transform="translate(387.000000, 55.000000)"><path d="M20.2642481,24.9715296 L18.2452382,29.087028 C17.1510095,27.9769003 15.3896956,27.421704 12.9623409,27.421704 C10.6605704,27.421704 8.77367217,28.401244 7.3019072,30.3600592 C5.83014223,32.3191392 5.09439029,34.7979211 5.09439029,37.7966698 C5.09439029,40.7956833 5.77661876,43.1756636 7.14159787,44.9366106 C8.50631589,46.6978225 10.3271583,47.578296 12.6038641,47.578296 C15.2074547,47.578296 17.2452631,46.6339855 18.717028,44.7450997 L21,48.7649751 C19.0000497,50.9216584 16.0690521,52 12.2075293,52 C8.34600656,52 5.34582007,50.7110758 3.20775313,48.1332274 C1.06916401,45.5559087 0,42.0398422 0,37.5860872 C0,33.4388027 1.1856102,29.970945 3.55656952,27.182514 C5.92752884,24.3943479 8.96244032,23 12.6605207,23 C15.8301547,23 18.3648175,23.6574414 20.2642481,24.9715296" id="Fill-1" fill="#EC912D"></path><path d="M30.062573,37.2706312 C30.062573,40.548236 30.6064,43.0857195 31.6937946,44.8838757 C32.7811892,46.6820319 34.3625946,47.5812423 36.4374919,47.5812423 C38.8751135,47.5812423 40.7341405,46.7013555 42.0156108,44.9413171 C43.2968216,43.1815435 43.937427,40.6247364 43.937427,37.2706312 C43.937427,30.7029802 41.5625946,27.4190224 36.8126703,27.4190224 C34.6376216,27.4190224 32.9687784,28.3084387 31.8064,30.0875359 C30.6437622,31.8666332 30.062573,34.26091 30.062573,37.2706312 Z M25,37.2706312 C25,33.2791109 26.071827,29.9027703 28.2157405,27.1416092 C30.3593946,24.3807129 33.2248649,23 36.8126703,23 C40.7624216,23 43.780973,24.2502122 45.8688432,26.7495778 C47.9561946,29.2489435 49,32.7560495 49,37.2706312 C49,41.7849482 47.9094919,45.3688193 45.7282162,48.0211857 C43.5466811,50.6738168 40.4500324,52 36.4374919,52 C32.7500541,52 29.9219459,50.6867875 27.9531676,48.0593035 C25.9843892,45.432349 25,41.8360367 25,37.2706312 L25,37.2706312 Z" id="Fill-2" fill="#EC912D"></path><path d="M58.8148117,27.4798109 L58.8148117,36.3829556 C59.6297087,36.47148 60.2713761,36.5158736 60.7408388,36.5158736 C62.9382421,36.5158736 64.5431793,36.1394476 65.5556505,35.3863329 C66.5678654,34.6334809 67.0742291,33.4091114 67.0742291,31.7132243 C67.0742291,28.8276418 64.8084052,27.384982 60.2777825,27.384982 C59.7714188,27.384982 59.2840181,27.4167667 58.8148117,27.4798109 Z M58.8148117,40.7679376 L58.8148117,51 L54,51 L54,23.2088337 C57.2098744,23.0696112 59.0861878,23 59.6297087,23 C63.913556,23 67.0462971,23.6737841 69.027932,25.0216151 C71.0093107,26.3694461 72,28.473544 72,31.3333834 C72,37.7118733 68.3334757,40.9008556 61.0001708,40.9008556 C60.4566499,40.9008556 59.7283676,40.8567247 58.8148117,40.7679376 L58.8148117,40.7679376 Z" id="Fill-3" fill="#EC912D"></path><polyline id="Fill-4" fill="#EC912D" points="89.5231945 40.5133088 89.5231945 52 84.5151872 52 84.5151872 40.5133088 75 24 80.3161267 24 86.9998667 35.9452914 93.7030641 24 99 24 89.5231945 40.5133088"></polyline><polyline id="Fill-5" fill="#EC912D" points="125.046634 52 123.025631 52 116.981181 34.5777198 111.106628 52 109.085626 52 100 24 105.118898 24 110.313335 40.6679774 115.923369 24 118.076631 24 123.705484 40.6679774 128.881102 24 134 24 125.046634 52"></polyline><path d="M143.035602,27.5594181 L143.035602,35.2595882 C143.930872,35.3352469 144.614777,35.3729454 145.087058,35.3729454 C147.113996,35.3729454 148.596392,35.0828768 149.535535,34.5027395 C150.473903,33.922864 150.943346,32.7937431 150.943346,31.1161621 C150.943346,29.7540438 150.439579,28.8018961 149.432562,28.2594573 C148.425545,27.7172803 146.840176,27.4460609 144.676715,27.4460609 C144.154625,27.4460609 143.60776,27.4837594 143.035602,27.5594181 Z M153.405144,51 L146.112915,39.55407 C145.37946,39.5415038 144.353603,39.4972605 143.035602,39.4216018 L143.035602,51 L138,51 L138,23.2837856 C138.27382,23.2837856 139.324194,23.2366625 141.151897,23.1418928 C142.9796,23.0473849 144.452962,23 145.571985,23 C152.509875,23 155.97869,25.7244984 155.97869,31.1729716 C155.97869,32.8125923 155.499957,34.3071788 154.542749,35.6567309 C153.58554,37.0065449 152.379287,37.9586925 150.924506,38.5134357 L159,51 L153.405144,51 L153.405144,51 Z" id="Fill-6" fill="#EC912D"></path><polyline id="Fill-7" fill="#EC912D" points="185.765786 28.4151507 185.765786 52 180.835921 52 180.835921 28.4151507 172 28.4151507 172 24 195 24 195 28.4151507 185.765786 28.4151507"></polyline><polyline id="Fill-8" fill="#EC912D" points="228.012917 52 214.686154 34.5213623 214.686154 51.6417649 210 51.6417649 210 24 212.342948 24 225.313846 40.6679774 225.313846 24 230 24 230 52 228.012917 52"></polyline><path d="M257.80759,25.75638 L255.744186,29.7569189 C255.163436,29.2337736 254.267557,28.7138068 253.056024,28.1970187 C251.844491,27.6802305 250.803228,27.421704 249.932496,27.421704 C247.206613,27.421704 245.054668,28.3567436 243.477187,30.226028 C241.899444,32.0955774 241.110966,34.600053 241.110966,37.73919 C241.110966,40.7254891 241.883465,43.1118266 243.429774,44.8984673 C244.975821,46.6851081 247.080089,47.578296 249.743104,47.578296 C251.497141,47.578296 252.942336,47.0932939 254.078165,46.1235546 L254.078165,40.6105296 L250.235314,40.6105296 L250.235314,36.361 L259,36.361 L259,48.9180779 C257.82645,49.8880821 256.314981,50.6440602 254.466117,51.1865421 C252.616991,51.7287591 250.777818,52 248.948076,52 C244.972677,52 241.820596,50.6824684 239.492358,48.0471402 C237.163857,45.4123418 236,41.9312398 236,37.6051588 C236,33.2790778 237.268115,29.763541 239.804868,27.0580187 C242.341621,24.3527612 245.755131,23 250.046183,23 C253.087196,23 255.674506,23.9186168 257.80759,25.75638" id="Fill-9" fill="#EC912D"></path><path d="M199.006022,45.3545152 C199.038782,46.0214789 199.467794,46.6061669 200.11071,46.9546441 L200.110951,50.1511863 L200.60476,50.1509209 L200.604519,51.101072 L202.394999,52 L202.394518,50.1509209 L202.888568,50.1511863 L202.888568,46.9543787 C203.531724,46.6061669 203.960736,46.0217443 203.993737,45.3545152 L204,45.3545152 L204,24 L199,24 L199,45.3545152 L199.006022,45.3545152" id="Fill-10" fill="#2C8DB9"></path><path d="M168.435861,32.3912109 C168.435861,32.3912109 167.747376,32.4696735 167.541167,32.7851091 C167.533406,32.7975258 167.527196,32.8128484 167.520986,32.8268502 C167.532888,30.604799 167.531853,28.5354462 167.52642,26.9120359 L167.655527,26.9120359 C167.655527,26.9120359 168.573247,31.4058048 168.435861,32.3912109 Z M168.206366,26.9120359 L168.206366,25.0989414 L167.518399,25.0989414 C167.512707,24.0918722 167.506756,23.4961374 167.506756,23.4961374 C167.506756,23.4961374 166.774805,23.0013209 165.265106,23 C163.756184,23.0015851 163.023974,23.4961374 163.023974,23.4961374 C163.023974,23.4961374 162.79422,46.5419597 163.757219,48.9325602 C164.283996,50.2407991 165.188781,51.8639453 165.264848,52 C165.341173,51.8639453 166.245699,50.2407991 166.773511,48.9325602 C167.308827,47.603715 167.475191,39.8908647 167.517623,33.3029097 C167.609473,33.6479339 167.857596,34.0072241 168.160571,34.0072241 C168.64207,34.0069599 168.848538,33.3763528 168.985924,32.3906825 C169.123569,31.4055406 168.206366,26.9120359 168.206366,26.9120359 L168.206366,26.9120359 Z" id="Fill-11" fill="#2C8DB9"></path><path d="M51.0728889,0 C47.2033383,0 42.9396087,2.7868522 42.9396087,5.70535451 C42.9396087,7.285414 43.8201053,7.83395614 45.4189016,7.83395614 C45.3957307,7.63648097 45.0945082,7.46094749 45.0945082,6.34166339 C45.0945082,3.99390304 46.3457401,2.3260768 48.3618864,1.53617612 L44.7237728,17.2035721 C44.1908407,19.4638239 43.5649521,19.9029157 42.5222588,19.9029157 C41.8503009,19.9029157 40.9466334,19.5077072 40.9466334,18.3667396 C40.9466334,17.5548972 41.5027365,16.7427967 42.5686007,16.7427967 C43.03202,16.7427967 43.3795844,16.8527633 43.959131,17.3135387 C44.0518149,16.9841553 44.0981568,16.6769717 44.0981568,16.4356131 C44.0981568,15.0313453 42.7539684,14.9655202 41.8271299,14.9655202 C39.996624,14.9655202 39,16.4136715 39,17.9059642 C39,19.7271241 40.2283336,21 42.429575,21 C46.2298853,21 47.7826123,18.9372234 48.5240831,15.5798874 L52,0 L51.0728889,0" id="Fill-12" fill="#2C8DB9"></path><path d="M86.9708119,18.2595784 C86.6783642,19.5809516 86.0932039,20.0064786 85.6432843,20.0064786 C85.1483727,20.0064786 84.743445,19.5809516 84.743445,19.2674055 C84.743445,18.058013 85.8232522,17.4085245 87.2407637,16.9379417 L86.9708119,18.2595784 Z M57.2544126,6.18699628 C57.6818362,6.18699628 57.8168121,6.54559826 57.8168121,7.10550217 C57.8168121,8.96438314 56.2868206,10.6891507 54.55463,10.8011314 C55.0045496,8.58364848 56.1068528,6.18699628 57.2544126,6.18699628 Z M88.208091,12.3912585 C87.8706512,13.5113298 87.2857557,14.3623838 86.4084124,14.3623838 C85.8910048,14.3623838 85.7332682,13.891801 85.7332682,13.3766894 C85.7332682,13.1977836 85.7557642,12.9959547 85.8007562,12.8167855 L87.4207316,5.20156541 L84.1810454,5.20156541 L82.6510539,12.3912585 C82.6507892,12.3928394 82.6505246,12.3941569 82.6505246,12.3957378 C82.1561423,13.5579665 81.7512146,14.3623838 80.76245,14.3623838 C80.0875705,14.3623838 79.8626107,13.9816491 79.8626107,13.4217452 C79.8626107,12.167297 80.9424178,9.45709857 80.9424178,7.64300992 C80.9424178,5.85105394 79.8851067,5.11198078 78.4450991,5.11198078 C77.7477236,5.11198078 76.7579004,5.29115003 75.8130691,6.36616553 L76.0605249,5.20156541 L72.8205741,5.20156541 L71.2874067,12.4017979 C70.7946123,13.5606014 70.3891553,14.3623838 69.4019786,14.3623838 C68.7273638,14.3623838 68.502404,13.9816491 68.502404,13.4217452 C68.502404,12.167297 69.5822112,9.45709857 69.5822112,7.64300992 C69.5822112,5.85105394 68.5246353,5.11198078 67.0848924,5.11198078 C66.3875169,5.11198078 65.3976937,5.29115003 64.4525978,6.36616553 L64.7000536,5.20156541 L61.4603674,5.20156541 L59.9285233,12.3944203 C58.8047828,13.6696838 57.7252402,14.6535338 55.9493809,14.6535338 C54.8695737,14.6535338 54.3296701,14.2951953 54.3296701,12.7719932 C54.3296701,12.5032393 54.3521661,12.1896931 54.3746621,11.8761469 C57.07418,11.7193738 59.5490028,9.72585245 59.5490028,7.150031 C59.5490028,6.03022319 59.0765872,5 57.07418,5 C52.4622389,5 51,10.3980006 51,12.9735586 C51,15.5045877 52.3947509,16.5350744 54.5093733,16.5350744 C56.7512965,16.5350744 58.3866221,15.3657316 59.6053751,13.9126162 L59.0755285,16.400434 L62.3154794,16.400434 L63.8452062,9.21074086 C64.182646,8.09093304 64.7900375,7.150031 65.6001575,7.150031 C66.1400611,7.150031 66.4100129,7.55342529 66.4100129,8.29249845 C66.4100129,9.72585245 65.3976937,12.4808431 65.3976937,14.0040453 C65.3976937,15.2806262 66.0950692,16.5350744 68.0522197,16.5350744 C68.7951164,16.5350744 69.7476228,16.3519529 70.6646649,15.3262089 L70.4359999,16.400434 L73.6756861,16.400434 L75.2054129,9.21074086 C75.5431173,8.09093304 76.1502442,7.150031 76.9603642,7.150031 C77.5002678,7.150031 77.7702196,7.55342529 77.7702196,8.29249845 C77.7702196,9.72585245 76.7579004,12.4808431 76.7579004,14.0040453 C76.7579004,15.2806262 77.4552758,16.5350744 79.412691,16.5350744 C80.2977094,16.5350744 81.4804688,16.2744885 82.5462491,14.6379882 C82.8066732,15.9548822 83.7366836,16.5350744 84.8784209,16.5350744 C85.6432843,16.5350744 86.6558682,16.3332455 87.6231954,15.2358338 L87.3982356,16.2212647 C85.2608526,16.8486206 83.5061659,17.4981091 83.5061659,19.5809516 C83.5061659,21.0369653 84.7884369,22 86.1609566,22 C87.6456914,22 89.5806106,21.3953038 90.2554901,18.19239 L93,5.20156541 L89.7380825,5.20156541 L88.208091,12.3912585 L88.208091,12.3912585 Z" id="Fill-13" fill="#2C8DB9"></path><path d="M102.41084,15.9999049 L105.926838,0.0441798565 C105.630056,0.0222206379 105.333274,0 105.013662,0 C101.200881,0 97,2.82202101 97,5.77762726 C97,7.37777461 97.8675178,7.93329056 99.4427474,7.93329056 C99.419918,7.73330481 99.1231356,7.55553971 99.1231356,6.42202576 C99.1231356,4.04441751 100.333095,2.37760825 102.319522,1.57766529 L98.9176709,16.977613 C99.1003062,16.9553924 99.2601121,16.9553924 99.4427474,16.9553924 C103.483822,16.9553924 106.360597,22 109.625472,22 C110.858529,22 111.771706,20.6445411 112,18.5110984 C111.337947,18.7777461 110.698455,18.8666286 110.082061,18.8666286 C107.182456,18.8666286 104.785099,16.5109796 102.41084,15.9999049" id="Fill-14" fill="#2C8DB9"></path><path d="M139.79042,15.2345287 C138.904987,15.2345287 138.509025,14.8178711 138.435855,13.9758812 C138.464384,13.9167342 138.492912,13.858113 138.520912,13.796863 C138.654836,13.9183115 138.853478,13.9608973 139.027025,13.9608973 C139.610798,13.9608973 140.014948,13.4020241 140.014948,12.8657583 C140.014948,12.4859033 139.79042,12.2177704 139.498534,12.0837039 C140.23974,10.6536616 140.868419,9.31273412 141.317475,7.86034743 C141.541739,11.3016495 141.744079,11.9943263 141.744079,13.1562356 C141.744079,14.7206072 140.778608,15.2345287 139.79042,15.2345287 Z M132.157258,12.8657583 C131.88756,14.161997 130.944542,14.8323293 130.29341,14.8323293 C129.88926,14.8323293 129.170506,14.8099849 129.170506,13.0892024 C129.170506,10.9885649 130.405674,6.96630813 132.314427,6.96630813 C133.032653,6.96630813 133.234993,7.54752569 133.234993,7.81565861 L132.157258,12.8657583 Z M144.506038,5 L141.182758,5.44688821 C140.486457,7.63664045 139.67842,9.84899998 138.420799,12.0613595 C137.814573,12.3518368 137.2308,13.1115468 137.2308,14.1396526 C137.2308,14.2056343 137.235291,14.2724047 137.239781,14.3389121 C136.937329,14.7221845 136.567782,14.9663958 136.131669,14.9663958 C135.50299,14.9663958 135.211104,14.6312296 135.211104,14.0053232 C135.211104,13.8042235 135.233292,13.5807794 135.300651,13.2903021 L136.917517,5.69267673 L133.684049,5.69267673 L133.437068,6.87693049 L133.437068,6.72051962 C133.437068,6.07253171 132.8982,5.58095468 131.618126,5.58095468 C127.802734,5.58095468 125.936773,10.1620846 125.851452,13.1862034 C124.82734,14.3002694 123.787115,15.1228066 122.166022,15.1228066 C121.088023,15.1228066 120.549156,14.7652961 120.549156,13.2456133 C120.549156,10.7651208 122.008588,6.6758308 123.423379,6.6758308 C123.849983,6.6758308 124.052058,7.03360424 124.052058,7.59221451 C124.052058,7.97206949 123.962247,8.4189577 123.782624,8.91053473 C124.052058,9.08929002 124.321492,9.17866766 124.568473,9.17866766 C125.219604,9.17866766 125.758471,8.64240181 125.758471,7.54752569 C125.758471,6.51941992 125.26451,5.49157703 123.26621,5.49157703 C118.707761,5.49157703 117.225876,10.8547613 117.225876,13.446713 C117.225876,13.5034941 117.230102,13.5555434 117.231687,13.6110101 C116.877197,14.339175 116.367122,14.8323293 115.700142,14.8323293 C115.071463,14.8323293 114.779576,14.6312296 114.779576,14.0053232 C114.779576,13.8042235 114.802029,13.5807794 114.869388,13.2903021 L116.486254,5.69267673 L113.252785,5.69267673 L111.72573,12.8657583 C111.388938,13.9832417 110.805165,14.8323293 109.929506,14.8323293 C109.43528,14.8323293 109.255657,14.4301299 109.255657,13.9162085 C109.255657,13.7151088 109.27811,13.5137462 109.32328,13.2903021 L110.939882,5.69267673 L107.706413,5.69267673 L106.179358,12.8657583 C106.067094,13.4020241 106,13.893864 106,14.318145 C106,16.1953383 107.055282,17 108.402451,17 C109.345733,17 110.602826,16.7092598 111.72573,14.8770181 C111.860447,16.2623716 112.669012,17 113.948558,17 C114.873086,17 116.267009,16.7124143 117.444593,14.9629784 C117.912139,16.3896033 119.106893,17 120.728778,17 C123.024512,17 124.681265,15.7707945 125.907452,14.2689873 C126.193528,16.2673662 127.486545,17 128.833978,17 C130.428127,17 131.483409,15.9718942 132.179711,14.9440513 C132.314427,16.284716 133.122728,17 134.380086,17 C135.217443,17 136.439933,16.7649894 137.537743,15.4209074 C137.986535,16.2996999 138.942761,17 140.50891,17 C142.350304,17 145,16.0389275 145,13.1338912 C145,11.6591601 144.775472,10.7877281 144.506038,5 L144.506038,5 Z" id="Fill-15" fill="#2C8DB9"></path></g></g></g></g></g></svg> 